<svg xmlns="http://www.w3.org/2000/svg" width="172.211" height="180" viewBox="0 0 45.564 47.625">
  <path fill="#f4eed7" fill-rule="evenodd" d="M8.367 17.445l-6.384 2.35-.023 1.217 6.843 4.369zM43.46 19.847L37.27 17.3l-.436 8.154 6.625-4.295z"/>
  <path fill="#f4eed7" fill-rule="evenodd" d="M43.584 27.083l-4.784-2.43-15.945 7.135L6.91 24.725 1.96 27.27l.023 1.29 4.636 2.21v8.154l16.236 6.698 16.382-6.771.072-7.936 4.296-2.476z"/>
  <path fill="#d4aa00" fill-rule="evenodd" d="M21.617 13.586l-5.242-2.184-7.499 2.912-.073 11.067 9.393 4.077.145-14.343z"/>
  <path fill="#d3bc5f" fill-rule="evenodd" d="M36.834 25.453l-.146-10.12-9.173-3.859-9.174 3.64-.145 14.344 4.66 2.33z"/>
  <path fill="#d38d5f" fill-rule="evenodd" d="M31.155 4.776L24.894 2.01l-6.626 2.84v6.97l3.35 1.766 5.897-2.112 3.658 1.275z"/>
  <path fill="none" stroke="#000" stroke-linecap="round" stroke-width="1.058" d="M40.812 32.214v6.853l-13.645 5.63-13.766-5.691-.061-6.67M27.167 44.696V33.071" transform="matrix(-1.18994 0 0 1.18994 55.183 -7.565)"/>
  <path fill="none" stroke="#000" stroke-linecap="round" stroke-width="1.058" d="M44.708 30.357L30.96 35.824l-3.794-2.753-3.977 2.876-13.46-5.69.018-1.14 4.02-2.042 13.4 5.996 13.399-5.935 4.16 2.138z" transform="matrix(-1.18994 0 0 1.18994 55.183 -7.565)"/>
  <path fill="none" stroke="#000" stroke-linecap="round" stroke-linejoin="round" stroke-width="1.058" d="M23.007 31.113l.122-8.75 7.832-3.303.122 12.053M31.328 21.446l7.587-3.06.061 9.3" transform="matrix(-1.18994 0 0 1.18994 55.183 -7.565)"/>
  <path fill="none" stroke="#000" stroke-linecap="round" stroke-linejoin="round" stroke-width="1.058" d="M23.13 22.364l-7.588-3.12L23.252 16l7.709 3.06" transform="matrix(-1.18994 0 0 1.18994 55.183 -7.565)"/>
  <path fill="none" stroke="#000" stroke-linecap="round" stroke-width="1.058" d="M15.542 19.243l-.122 8.505M15.053 20.895l-5.2 2.142v1.101l5.567 3.61M39.343 21.018l5.365 1.976.02 1.022-5.752 3.67M20.177 17.071l.015-6.7 5.262-2.325 5.568 2.387v5.858M28.208 17.775l4.405-1.836 6.302 2.448" transform="matrix(-1.18994 0 0 1.18994 55.183 -7.565)"/>
  <path fill="none" stroke="#000" stroke-linecap="round" stroke-width="1.058" d="M20.192 10.371l5.323 2.387 5.507-2.325M25.515 12.758l-.06 3.854" transform="matrix(-1.18994 0 0 1.18994 55.183 -7.565)"/>
</svg>
