<svg xmlns="http://www.w3.org/2000/svg" width="124" height="37" fill="none" viewBox="0 0 124 37">
    <path fill="#00E78E" d="M30.802.092L4.013 4.91C1.803 5.307 0 7.48 0 10.087V26.37c0 2.671 1.802 4.793 4 5.202l26.815 5.1c3.26.613 5.943-1.803 5.943-5.292V5.626c0-3.847-2.684-6.122-5.956-5.534z"/>
    <path fill="#000" d="M40.925 18.765c0 1.917.946 3.17 2.492 3.17 1.035 0 1.828-.435 2.48-1.636l2.326 1.137c-.908 2.045-2.71 2.991-4.87 2.991-3.08 0-5.278-2.352-5.278-5.662 0-3.323 2.198-5.662 5.278-5.662 2.147 0 3.962.946 4.87 2.99l-2.326 1.138c-.652-1.214-1.445-1.636-2.48-1.636-1.546 0-2.492 1.253-2.492 3.17zM60.148 18.765c0 3.297-2.288 5.662-5.599 5.662-3.31 0-5.572-2.364-5.572-5.662 0-3.272 2.262-5.662 5.573-5.662 3.323 0 5.598 2.39 5.598 5.662zm-2.838 0c0-1.879-1.035-3.17-2.76-3.17-1.7 0-2.736 1.291-2.736 3.17 0 1.892 1.036 3.17 2.736 3.17 1.725 0 2.76-1.278 2.76-3.17zM64.774 16.605v7.54h-2.799V13.372h2.288l.192 1.036c.92-.844 2.172-1.317 3.425-1.317 1.661 0 2.582.601 3.08 1.534.946-.984 2.3-1.534 3.643-1.534 3.17 0 3.617 2.211 3.617 4.46v6.596h-2.8v-6.672c0-1.482-.434-1.891-1.482-1.891-.882 0-1.815.434-2.454 1.073.026.307.026.6.026.908v6.595h-2.8v-6.672c0-1.483-.434-1.892-1.482-1.892-.895-.012-1.776.41-2.454 1.01zM83.46 23.29v4.626h-2.799V13.384h2.288l.217 1.227c.793-.907 1.879-1.508 3.17-1.508 2.927 0 5.061 2.364 5.061 5.662 0 3.272-2.134 5.662-5.061 5.662-1.15 0-2.122-.422-2.876-1.137zm5.087-4.525c0-1.917-1.01-3.17-2.543-3.17-1.662 0-2.544 1.253-2.544 3.17s.882 3.17 2.544 3.17c1.533 0 2.543-1.253 2.543-3.17zM95.87 24.261c-1.942 0-3.08-1.01-3.08-3.272V9.077h2.8v11.311c0 .882.319 1.227 1.06 1.227v2.608c-.217.012-.486.038-.78.038zM99.769 8.297c.996 0 1.763.793 1.763 1.79 0 .946-.779 1.738-1.763 1.738-.972 0-1.764-.792-1.764-1.738 0-.997.792-1.79 1.764-1.79zm-1.406 5.087h2.799V24.16h-2.8V13.384zM105.84 18.765c0 1.917.945 3.17 2.492 3.17 1.035 0 1.828-.435 2.479-1.636l2.327 1.137c-.908 2.045-2.71 2.991-4.87 2.991-3.08 0-5.279-2.352-5.279-5.662 0-3.323 2.199-5.662 5.279-5.662 2.147 0 3.962.946 4.87 2.99l-2.327 1.138c-.651-1.214-1.444-1.636-2.479-1.636-1.547 0-2.492 1.253-2.492 3.17zM121.036 23.2c-.779.754-1.917 1.253-3.106 1.253-2.147 0-4.051-1.547-4.051-3.643 0-2.288 1.891-3.655 4.205-3.655 1.163 0 1.943.434 2.479.92V16.95c0-.882-.715-1.508-2.045-1.508-.792 0-1.789.153-2.926.78l-.793-2.07c1.38-.717 2.569-1.049 4.205-1.049 2.901 0 4.371 1.636 4.371 4.333v6.723h-2.211l-.128-.959zm-4.307-2.39c0 .856.792 1.419 1.789 1.419 1.01 0 1.764-.563 1.79-1.419 0-.856-.754-1.444-1.79-1.444-.997 0-1.789.588-1.789 1.444zM30.304 24.427c-1.726 0-3.08-.78-4.116-2.352l1.738-1.418c1.01 1.188 1.675 1.508 2.697 1.508.729 0 1.265-.384 1.265-.972 0-.728-.69-1.06-2.556-1.47-1.763-.383-2.837-1.354-2.837-3.322 0-1.828 1.534-3.362 4.052-3.362 1.763 0 3.054.856 3.77 1.853l-1.725 1.547c-.371-.524-1.138-1.061-2.199-1.061-.856 0-1.419.37-1.419 1.01 0 .562.346.907 1.854 1.252 2.236.511 3.591 1.38 3.591 3.387 0 2.083-1.79 3.4-4.115 3.4zM25.664 18.33c0-3.016-1.879-5.227-5.163-5.227-3.208 0-5.368 2.262-5.368 5.662 0 3.297 2.39 5.662 5.572 5.662 2.3 0 3.732-.946 4.844-2.889l-2.236-1.163c-.69 1.138-1.7 1.598-2.608 1.598-1.508.026-2.454-.843-2.696-2.237h7.54c.09-.447.115-.997.115-1.405zm-7.592-.792c.243-1.393 1.036-2.237 2.39-2.237 1.406 0 2.237.844 2.352 2.237h-4.742zM10.928 9.077v5.164c-.754-.716-1.726-1.138-2.863-1.138-2.927 0-5.061 2.39-5.061 5.662 0 3.298 2.134 5.662 5.061 5.662 1.29 0 2.365-.6 3.17-1.508l.217 1.227h2.288V9.077h-2.812zM8.384 21.935c-1.533 0-2.543-1.253-2.543-3.17s1.01-3.17 2.543-3.17c1.662 0 2.544 1.253 2.544 3.17s-.882 3.17-2.544 3.17z"/>
</svg>
