<svg xmlns="http://www.w3.org/2000/svg" width="172.211" height="180" viewBox="0 0 45.564 47.625"><path fill="#f4eed7" fill-rule="evenodd" d="M8.367 17.445l-6.384 2.35-.023 1.217 6.843 4.369zm35.093 2.402L37.27 17.3l-.436 8.154 6.625-4.295z"/><path fill="#f4eed7" fill-rule="evenodd" d="M43.584 27.083l-4.784-2.43-15.945 7.135L6.91 24.725 1.96 27.27l.023 1.29 4.636 2.21v8.154l16.236 6.698 16.382-6.771.072-7.936 4.296-2.476z"/><path fill="#d4aa00" fill-rule="evenodd" d="M21.617 13.586l-5.242-2.184-7.499 2.912-.073 11.067 9.393 4.077.145-14.343z"/><path fill="#d3bc5f" fill-rule="evenodd" d="M36.834 25.453l-.146-10.12-9.173-3.859-9.174 3.64-.145 14.344 4.66 2.33z"/><path fill="#d38d5f" fill-rule="evenodd" d="M31.155 4.776L24.894 2.01l-6.626 2.84v6.97l3.35 1.766 5.897-2.112 3.658 1.275z"/><path fill="none" stroke="#000" stroke-linecap="round" stroke-width="1.259" d="M6.62 30.768v8.154l16.236 6.7 16.38-6.772.073-7.937M22.856 45.62V31.788"/><path fill="none" stroke="#000" stroke-linecap="round" stroke-width="1.259" d="M1.983 28.558l16.36 6.505 4.514-3.275 4.732 3.422 16.017-6.771-.021-1.357-4.784-2.43-15.945 7.136-15.944-7.063-4.95 2.544z"/><path fill="none" stroke="#000" stroke-linecap="round" stroke-linejoin="round" stroke-width="1.259" d="M27.806 29.458l-.145-10.412-9.32-3.93-.145 14.342m-.291-11.504l-9.029-3.64-.072 11.066"/><path fill="none" stroke="#000" stroke-linecap="round" stroke-linejoin="round" stroke-width="1.259" d="M27.66 19.047l9.029-3.713-9.174-3.86-9.174 3.641"/><path fill="none" stroke="#000" stroke-linecap="round" stroke-width="1.259" d="M36.689 15.333l.145 10.12m.437-8.154l6.188 2.549v1.31l-6.625 4.295M8.367 17.445l-6.384 2.351-.024 1.217 6.845 4.367m22.37-12.632l-.018-7.972-6.262-2.767-6.625 2.84v6.971m3.348 1.766l-5.242-2.185-7.499 2.913"/><path fill="none" stroke="#000" stroke-linecap="round" stroke-width="1.259" d="M31.156 4.776l-6.334 2.84-6.553-2.766m6.553 2.766l.071 4.586"/></svg>