<svg xmlns="http://www.w3.org/2000/svg" width="167.807" height="180" viewBox="0 0 44.399 47.625"><path fill="#e9ddaf" fill-rule="evenodd" d="M2.024 2.024l35.706.083-.083 43.494-35.54-.083z"/><path fill="#d38d5f" fill-rule="evenodd" d="M22.901 23.233l9.776-4.226 9.527 4.391.166 11.267-9.527 4.143-9.86-4.06z"/><path fill="none" stroke="#000" stroke-linecap="round" stroke-width="1.399" d="M37.73 40.63l-.083 4.97-35.54-.082-.083-43.494 35.706.083.083 15.244"/><path fill="none" stroke="#000" stroke-linecap="round" stroke-width="1.399" d="M8.9 12.048l1.657 1.492 3.728-4.474"/><path fill="none" stroke="#445016" stroke-linecap="round" stroke-width="1.399" d="M8.85 20.595l1.657 1.49 3.728-4.473"/><path fill="none" stroke="#000" stroke-linecap="round" stroke-width="1.399" d="M8.933 29.045l1.657 1.491 3.728-4.474M8.85 37.578l1.657 1.491 3.728-4.474m8.749.153l9.858 4.06 9.528-4.143-.166-11.267-9.527-4.39-9.776 4.225z"/><path fill="none" stroke="#000" stroke-linecap="round" stroke-width="1.399" d="M22.901 23.233l9.859 4.39 9.444-4.225m-9.444 4.225l.083 11.185"/></svg>