<svg xmlns="http://www.w3.org/2000/svg" width="181.499" height="180" viewBox="0 0 48.022 47.625"><path fill="#d38d5f" fill-rule="evenodd" d="M2.272 7.101l11.445-4.91L25.135 7.05l.089 4.01-4.367 2.095.019 8.18-4.376-2.026-8.776 3.622-5.597-2.462z"/><path fill="#d3bc5f" fill-rule="evenodd" d="M23.353 22.666l.024-8.002 11.52-4.749 10.992 4.837-.01 13.509-11.192 4.466-4.408-1.906.048-5.187z"/><path fill="#d4aa00" fill-rule="evenodd" d="M4.998 27.327l11.432-4.925 11.344 5.189.088 13.278-11.432 4.573-11.566-4.588z"/><g fill="none" stroke="#000" stroke-linecap="round" stroke-width="1.598"><path d="M7.724 22.93l-5.597-2.462L2.272 7.1l11.445-4.91 11.418 4.86.089 4.01"/><path d="M2.272 7.101l11.52 4.749 11.343-4.801M13.792 11.85l-.046 8.624m-8.882 20.38l11.566 4.588 11.432-4.573-.088-13.278-11.344-5.189-11.432 4.925z"/><path d="M4.998 27.327l11.256 4.749 11.52-4.485m-11.52 4.485l.176 13.366"/><path d="M23.353 22.666l.024-8.002 11.52-4.749 10.992 4.837-.01 13.509-11.192 4.466-4.408-1.906"/><path d="M23.377 14.664L34.721 19.5l11.168-4.748M34.721 19.5l-.034 13.227"/></g><path fill="none" stroke="#000" stroke-width=".32" d="M2.272 7.101l11.52 4.749 11.343-4.801-11.418-4.857z"/></svg>